<?xml version="1.0" standalone="no"?>
<!DOCTYPE svg PUBLIC "-//W3C//DTD SVG 20010904//EN"
 "http://www.w3.org/TR/2001/REC-SVG-20010904/DTD/svg10.dtd">
<svg version="1.0" xmlns="http://www.w3.org/2000/svg"
 width="225.000000pt" height="225.000000pt" viewBox="0 0 225.000000 225.000000"
 preserveAspectRatio="xMidYMid meet">

<g transform="translate(0.000000,225.000000) scale(0.100000,-0.100000)"
fill="#000000" stroke="none">
<path d="M1235 1997 c-27 -30 -68 -86 -90 -125 -36 -65 -44 -73 -80 -82 -90
-22 -178 -55 -229 -85 l-53 -33 -109 29 c-124 32 -215 37 -235 13 -32 -38 32
-298 98 -394 31 -46 39 -66 44 -125 3 -38 9 -82 13 -96 7 -24 4 -27 -54 -48
-92 -34 -133 -52 -128 -57 3 -2 45 12 94 31 49 19 95 35 102 35 7 0 18 -12 24
-26 10 -21 9 -27 -2 -34 -44 -25 -161 -112 -156 -117 3 -3 33 16 68 42 34 25
75 53 91 62 28 14 31 13 50 -6 l21 -21 -59 -60 c-33 -33 -54 -60 -48 -60 6 0
34 26 62 57 l51 57 45 -22 c45 -22 45 -22 39 -64 -8 -52 -58 -200 -109 -323
-66 -156 -58 -322 18 -379 26 -19 48 -22 225 -29 259 -10 274 -10 432 0 145 9
167 16 200 63 12 17 39 39 59 50 54 27 136 121 155 177 29 82 31 168 7 256
-30 111 -28 134 19 197 49 65 53 113 16 157 -22 25 -31 28 -83 28 -49 0 -66
-5 -95 -27 -79 -60 -105 -184 -69 -335 22 -97 28 -180 11 -153 -20 31 -41 118
-50 210 -5 52 -20 133 -34 180 l-25 85 54 55 c68 70 121 157 136 227 l12 54
81 -5 c53 -4 72 -2 56 3 -14 5 -51 9 -82 10 l-58 1 0 40 0 40 48 1 c26 0 65 4
87 9 30 7 18 8 -51 4 l-90 -4 -16 33 c-16 33 -16 34 10 45 l27 12 -31 -5 c-26
-3 -38 3 -82 48 -45 46 -54 62 -71 128 -20 79 -95 239 -138 297 -36 48 -66 44
-128 -21z m114 7 c51 -65 126 -241 146 -341 4 -20 23 -46 51 -71 40 -37 55
-62 37 -62 -5 0 -31 21 -59 48 -44 41 -52 54 -58 97 -9 59 -81 216 -120 263
-15 17 -35 32 -45 32 -22 0 -81 -62 -120 -126 -17 -28 -31 -54 -31 -58 0 -3
24 -6 53 -7 106 -1 91 -16 -23 -22 -68 -4 -140 -14 -175 -25 -88 -28 -194 -84
-245 -132 -25 -22 -55 -48 -68 -57 -41 -28 -34 -6 12 38 25 24 46 47 46 50 0
15 -128 40 -184 37 -59 -3 -60 -4 -69 -38 -17 -68 33 -234 96 -314 26 -33 31
-48 35 -115 2 -42 8 -83 13 -92 8 -16 3 -29 -11 -29 -12 0 -30 85 -30 139 0
38 -6 56 -25 80 -54 64 -107 213 -121 337 -5 52 -3 63 11 71 22 13 126 -2 228
-32 l82 -24 100 50 c65 33 124 54 168 62 l68 11 47 80 c56 94 127 176 152 176
10 0 28 -12 39 -26z m50 -463 c8 -5 -1 -8 -27 -7 -27 0 -47 -6 -61 -18 -12
-11 -21 -14 -21 -8 0 30 76 53 109 33z m222 -38 c7 -16 15 -31 17 -35 2 -5 -2
-8 -10 -8 -15 0 -49 55 -40 64 11 11 19 6 33 -21z m-481 -17 c0 -8 -5 -18 -10
-21 -8 -5 -7 -11 1 -21 16 -19 88 -18 95 1 28 71 69 -163 45 -252 -36 -132
-184 -94 -254 66 -43 98 -44 101 -3 101 48 0 65 8 82 42 16 30 12 48 -10 48
-8 0 -19 7 -26 15 -10 12 -8 16 11 24 36 15 69 13 69 -3z m375 5 c-11 -4 -33
-11 -50 -14 l-30 -6 30 14 c17 8 39 14 50 14 l20 0 -20 -8z m8 -48 c-13 -2
-33 -2 -45 0 -13 2 -3 4 22 4 25 0 35 -2 23 -4z m128 -25 c2 -66 -3 -103 -22
-153 -23 -62 -51 -102 -126 -177 l-56 -57 21 -68 c33 -106 40 -142 47 -228 3
-44 19 -122 36 -174 31 -96 40 -192 24 -259 l-7 -34 31 16 c126 66 188 240
140 391 -10 33 -19 85 -19 116 0 52 4 61 40 105 45 54 51 91 20 119 -23 21
-77 16 -117 -10 -62 -41 -84 -186 -47 -310 26 -89 22 -235 -6 -235 -6 0 -7 31
-3 78 4 61 1 92 -16 153 -55 196 10 359 143 359 40 0 84 -33 87 -65 3 -42 -2
-56 -37 -95 -47 -52 -52 -94 -24 -195 45 -162 8 -309 -101 -395 -28 -22 -62
-43 -75 -46 -14 -4 -31 -19 -40 -35 -25 -50 -66 -64 -194 -67 -170 -5 -207 -5
-412 -1 -170 4 -189 6 -215 25 -47 35 -58 68 -57 179 0 90 4 107 33 175 50
112 108 288 116 345 l6 51 -46 22 c-52 25 -135 98 -135 118 0 24 15 16 47 -24
66 -82 192 -122 362 -116 67 2 80 0 61 -8 -30 -12 -180 -15 -232 -5 -35 7 -38
6 -38 -16 0 -47 -41 -185 -97 -322 -53 -131 -57 -146 -57 -225 -1 -139 38
-180 172 -180 28 0 52 3 52 7 0 18 -54 182 -71 215 -24 47 -24 56 0 34 21 -19
51 -90 76 -179 10 -33 24 -61 35 -67 23 -13 117 -13 124 -1 4 5 2 42 -3 83
-16 121 -24 341 -13 334 9 -5 14 -44 27 -236 13 -171 26 -200 89 -200 69 0 72
6 197 350 13 36 25 57 27 48 3 -17 -71 -246 -107 -330 -24 -56 -20 -58 77 -57
101 1 132 16 162 74 21 43 25 64 25 140 0 75 -6 105 -33 183 -22 64 -32 112
-32 152 0 63 -19 158 -51 256 l-20 61 74 74 c98 99 132 167 132 266 0 52 4 73
13 73 7 0 12 -14 13 -32z m-736 -48 c4 -6 -8 -10 -29 -10 -43 0 -76 -29 -76
-65 0 -14 -4 -25 -10 -25 -25 0 5 80 37 99 23 13 70 14 78 1z m-120 -149 c-12
-11 -75 -25 -75 -17 0 3 15 10 33 15 43 12 53 13 42 2z m24 -34 c-2 -2 -22
-13 -44 -25 l-40 -22 30 25 c17 14 36 25 44 25 8 0 12 -1 10 -3z m668 -835
c14 -9 36 -62 29 -70 -3 -2 -11 7 -17 21 -17 36 -38 41 -66 15 -22 -21 -24
-21 -17 -3 13 37 45 53 71 37z m-678 -29 c12 -27 12 -27 -6 -10 -28 24 -41 21
-63 -15 -19 -31 -20 -32 -20 -9 0 58 67 83 89 34z"/>
<path d="M1120 1418 c0 -8 -10 -28 -22 -44 -12 -16 -15 -23 -6 -16 36 29 102
-29 134 -117 10 -28 22 -51 26 -51 12 0 10 145 -3 196 -8 32 -15 42 -22 35
-15 -15 -80 -14 -95 1 -9 9 -12 9 -12 -4z"/>
</g>
</svg>
