<?xml version="1.0" standalone="no"?>
<!DOCTYPE svg PUBLIC "-//W3C//DTD SVG 20010904//EN"
 "http://www.w3.org/TR/2001/REC-SVG-20010904/DTD/svg10.dtd">
<svg version="1.0" xmlns="http://www.w3.org/2000/svg"
 width="626.000000pt" height="626.000000pt" viewBox="0 0 626.000000 626.000000"
 preserveAspectRatio="xMidYMid meet">

<g transform="translate(0.000000,626.000000) scale(0.100000,-0.100000)"
fill="#000000" stroke="none">
<path d="M1745 5848 c-70 -82 -166 -332 -201 -523 -25 -132 -26 -536 -2 -660
l16 -80 -64 -125 c-80 -156 -120 -211 -181 -247 -41 -24 -58 -28 -115 -27
l-67 1 21 -41 c34 -67 59 -97 106 -127 63 -40 32 -36 -49 5 l-66 34 9 -40 c11
-49 29 -86 64 -127 28 -34 29 -32 -41 -50 -51 -13 -151 -73 -190 -113 l-30
-32 37 31 c67 57 228 124 228 95 0 -6 20 -40 45 -76 l44 -65 -60 -32 c-33 -18
-91 -61 -127 -96 l-67 -64 70 56 c39 31 101 72 139 91 l69 34 81 -83 c45 -46
109 -106 142 -134 277 -227 683 -386 1074 -422 249 -23 564 35 821 150 48 22
91 39 97 39 5 0 42 -34 82 -76 39 -42 67 -66 60 -55 -6 12 -38 50 -72 86 -33
36 -56 65 -51 65 5 0 42 20 83 44 l74 45 40 -22 c22 -12 64 -44 95 -71 55 -49
55 -49 16 -7 -22 24 -61 58 -88 76 l-47 32 77 61 c43 33 100 83 128 111 54 55
51 58 -35 41 -25 -4 -47 -7 -48 -5 -2 2 13 12 35 23 21 11 65 41 97 66 l59 46
-67 0 -68 0 59 39 c32 22 67 49 76 59 17 19 16 20 -27 32 -63 17 -108 59 -148
137 -39 75 -64 164 -73 263 -6 61 -4 70 33 150 53 113 97 249 128 395 34 161
44 442 21 590 -20 125 -47 215 -69 229 -41 26 -289 -87 -443 -201 -85 -64
-272 -241 -328 -310 l-25 -33 -54 24 c-155 69 -340 106 -527 106 l-126 0 -35
68 c-54 106 -181 290 -258 374 -133 145 -292 278 -333 278 -10 0 -29 -14 -44
-32z m200 -438 c74 -148 135 -274 135 -279 0 -7 -161 54 -232 89 -28 14 20
-29 107 -97 85 -66 85 -66 40 -60 -46 5 -144 -8 -186 -26 -28 -11 -25 -12 40
-13 112 -3 114 -8 30 -64 -82 -54 -141 -107 -211 -189 l-46 -55 -7 120 c-18
288 28 536 141 755 25 49 48 89 50 89 2 0 65 -121 139 -270z m1922 -97 c15
-104 8 -438 -10 -563 -23 -146 -87 -411 -98 -404 -5 3 -9 15 -9 27 0 41 -41
171 -73 232 -18 33 -62 91 -99 129 -38 38 -68 71 -68 74 0 6 156 -5 190 -13
20 -5 22 -4 10 4 -32 23 -128 53 -190 60 l-65 6 60 35 c33 19 84 45 115 58
l55 23 -59 -6 c-32 -4 -81 -13 -108 -22 -28 -8 -52 -12 -55 -9 -16 16 354 426
384 426 6 0 15 -25 20 -57z m-1803 -837 c77 -32 159 -133 196 -241 30 -88 45
-220 31 -273 -15 -53 -73 -119 -126 -143 -54 -25 -146 -24 -221 1 -207 71
-307 296 -218 490 64 141 218 216 338 166z m1252 -161 c105 -31 180 -117 211
-239 28 -114 -6 -232 -90 -316 -146 -146 -406 -142 -511 8 -25 36 -30 51 -29
98 5 202 135 399 296 450 55 17 64 17 123 -1z m-702 -521 c26 -9 54 -27 63
-40 14 -22 14 -26 -1 -49 -9 -13 -43 -43 -77 -66 -61 -41 -61 -42 -56 -81 3
-22 14 -49 24 -60 40 -45 124 -61 173 -33 38 22 49 18 15 -5 -68 -45 -185 -13
-215 60 l-13 31 -26 -24 c-36 -34 -64 -47 -101 -47 -35 0 -94 22 -105 40 -4 7
3 6 16 -3 13 -9 41 -19 61 -22 76 -14 172 62 148 117 -5 12 -26 45 -45 72 -19
26 -35 59 -35 72 0 51 82 69 174 38z"/>
<path d="M1991 4393 c-69 -34 -119 -156 -107 -259 12 -102 59 -174 131 -199
72 -24 138 7 190 90 25 41 31 61 34 127 8 188 -114 307 -248 241z m77 -65 c24
-52 -32 -112 -81 -87 -41 22 -49 58 -21 97 23 34 84 28 102 -10z"/>
<path d="M3165 4233 c-46 -24 -65 -44 -92 -97 -107 -212 77 -464 251 -345 112
77 141 270 56 389 -45 63 -148 89 -215 53z m53 -39 c51 -35 12 -128 -46 -108
-54 19 -60 88 -8 112 28 14 28 14 54 -4z"/>
<path d="M4585 3845 c-222 -97 -356 -265 -426 -534 -26 -99 -36 -310 -20 -420
28 -192 62 -282 235 -630 155 -312 187 -404 194 -557 3 -90 1 -125 -17 -193
-44 -177 -171 -366 -305 -455 -21 -14 -42 -26 -46 -26 -4 0 0 28 7 63 24 107
28 289 9 397 -46 261 -202 569 -375 740 -42 42 -132 118 -201 170 -148 112
-381 339 -439 429 -22 35 -55 99 -73 142 -25 62 -36 78 -49 74 -115 -37 -422
-56 -574 -36 -140 19 -255 49 -330 86 -38 19 -69 34 -71 32 -1 -1 -16 -44 -33
-95 -70 -211 -118 -452 -128 -647 -8 -162 13 -293 83 -525 166 -552 210 -872
142 -1021 -22 -49 -30 -57 -61 -63 -78 -15 -157 -107 -157 -183 0 -43 42 -90
93 -105 23 -6 52 -18 63 -25 32 -20 145 -27 214 -14 58 12 62 11 89 -12 45
-38 148 -61 244 -54 149 10 217 52 251 154 8 26 49 203 91 393 41 190 84 377
96 415 38 123 95 217 161 266 57 41 71 36 16 -6 -79 -60 -133 -169 -164 -332
-30 -161 -4 -313 77 -447 l37 -61 89 4 c74 3 100 -1 165 -23 42 -14 91 -35
110 -47 36 -23 24 -21 -67 11 -82 30 -208 26 -278 -9 -69 -34 -102 -81 -102
-147 0 -45 5 -58 26 -80 101 -100 497 -73 768 52 121 56 176 124 151 189 -13
35 -9 38 79 60 478 120 778 577 696 1061 -25 145 -72 275 -180 493 -145 294
-173 391 -162 571 14 229 127 425 296 514 92 48 167 59 331 51 123 -6 137 -5
158 11 31 26 39 83 18 139 -32 84 -190 195 -316 224 -101 23 -249 8 -372 -39
-58 -21 -95 -50 -136 -105 l-23 -30 15 31 c18 37 96 116 149 152 32 21 44 32
35 32 -2 0 -39 -16 -83 -35z m-2531 -1630 c70 -368 267 -681 554 -883 l59 -42
6 48 c4 26 9 138 13 250 4 111 11 205 15 208 15 9 10 -421 -7 -566 -30 -268
-78 -453 -127 -498 -54 -47 -52 -56 -49 287 l2 316 -35 24 c-90 61 -222 210
-298 338 -123 203 -192 517 -170 766 l8 92 6 -125 c4 -69 14 -165 23 -215z
m354 -1574 c-13 -15 -25 -27 -27 -25 -4 4 39 54 47 54 2 0 -7 -13 -20 -29z"/>
<path d="M2601 1213 c16 -48 33 -91 38 -96 6 -6 12 14 16 49 4 33 9 67 11 76
4 12 -8 22 -42 37 -26 12 -48 21 -50 21 -1 0 11 -39 27 -87z"/>
<path d="M1039 3463 c-13 -16 -12 -17 4 -4 9 7 17 15 17 17 0 8 -8 3 -21 -13z"/>
<path d="M3011 852 c-30 -130 -56 -242 -58 -248 -6 -15 50 -34 98 -34 33 0 39
3 39 22 0 45 48 107 118 153 1 1 -14 26 -34 56 -47 70 -71 126 -93 216 l-17
73 -53 -238z"/>
</g>
</svg>
